<svg xmlns="http://www.w3.org/2000/svg" width="20" height="20" viewBox="0 0 20 20" fill="none">
  <path fill-rule="evenodd" clip-rule="evenodd" d="M16 2H4C2.89543 2 2 2.89543 2 4V16C2 17.1046 2.89543 18 4 18H16C17.1046 18 18 17.1046 18 16V4C18 2.89543 17.1046 2 16 2ZM4 0C1.79086 0 0 1.79086 0 4V16C0 18.2091 1.79086 20 4 20H16C18.2091 20 20 18.2091 20 16V4C20 1.79086 18.2091 0 16 0H4Z" fill="#777E91"/>
  <path d="M5 6C5.55228 6 6 5.55228 6 5C6 4.44772 5.55228 4 5 4C4.44772 4 4 4.44772 4 5C4 5.55228 4.44772 6 5 6Z" fill="#777E91"/>
  <path d="M5 8C4.44772 8 4 8.4477 4 9V15C4 15.5523 4.44772 16 5 16C5.55228 16 6 15.5523 6 15V9C6 8.4477 5.55228 8 5 8Z" fill="#777E91"/>
  <path d="M12 10C10.8954 10 10 10.8954 10 12V15C10 15.5523 9.5523 16 9 16C8.4477 16 8 15.5523 8 15V9C8 8.4477 8.4477 8 9 8C9.4054 8 9.7544 8.2412 9.9114 8.5879C10.5193 8.215 11.2346 8 12 8C14.2091 8 16 9.7909 16 12V15C16 15.5523 15.5523 16 15 16C14.4477 16 14 15.5523 14 15V12C14 10.8954 13.1046 10 12 10Z" fill="#777E91"/>
</svg>