<svg width="21" height="25" viewBox="0 0 21 25" fill="none" xmlns="http://www.w3.org/2000/svg">
<g id="logo icon">
<path id="Vector 1" d="M2.51236 14.3138L7.4279 14.1693L9.02055 10.7185C9.19101 10.3492 8.87333 9.9456 8.47632 10.0342C7.1581 10.3282 5.30282 10.8151 4.26123 11.3359C3.26107 11.836 2.51099 12.8675 2.08133 13.6566C1.91054 13.9703 2.15534 14.3243 2.51236 14.3138Z" fill="white"/>
<path id="Vector 2" d="M18.619 23.628L14.4042 16.2522C14.0338 15.604 13.1092 15.5743 12.6953 16.1956C11.4016 18.1376 9.60367 20.7833 8.76153 21.8359C7.69486 23.1693 6.53931 23.3915 6.09486 23.3359C4.87265 23.2804 2.0949 23.0693 0.761565 22.6693C-0.571768 22.2693 0.12166 21.4507 0.761565 21.1693C1.52536 20.8333 3.42823 20.2359 4.76157 19.8359C6.0949 19.436 7.0949 17.8915 7.42823 17.1693L12.4282 7.66919C13.706 5.05808 16.7282 -0.130812 18.5949 0.00252097C20.4616 0.135854 19.9282 2.16919 19.4282 3.16919L16.7571 8.98285C16.6528 9.20992 16.6367 9.46605 16.713 9.70401C17.6984 12.7776 19.5828 18.6717 20.0949 20.3359C20.5188 21.7134 19.918 22.9716 19.3468 23.709C19.1509 23.9619 18.7777 23.9057 18.619 23.628Z" fill="white"/>
</g>
</svg>
