<svg xmlns="http://www.w3.org/2000/svg" width="22" height="18" viewBox="0 0 22 18" fill="none">
  <path fill-rule="evenodd" clip-rule="evenodd" d="M2.11591 10.9998C0.450388 11.0045 -0.624748 12.8884 0.40132 14.3157C1.87075 16.3596 4.53539 18 8.98393 18C15.8779 18 21.4117 12.4217 20.637 5.8311L21.7719 3.5773C22.559 2.01428 21.1913 0.23622 19.4655 0.57894L17.9661 0.87669C17.5686 0.66843 17.1571 0.51127 16.8056 0.39741C16.1203 0.17552 15.2909 0 14.5232 0C13.1441 0 11.9539 0.35131 11.008 1.05593C10.0728 1.75264 9.54611 2.66825 9.25707 3.50905C9.12382 3.89661 9.03509 4.28534 8.97816 4.65843C8.4431 4.49123 7.89752 4.26626 7.3634 3.99155C6.15161 3.36832 5.17172 2.57822 4.61895 1.88551C3.69155 0.7233 1.72618 0.80947 1.03651 2.32021C0.0644834 4.44947 0.331123 6.97346 1.20485 9.0129C1.49771 9.6964 1.87866 10.3721 2.34407 10.9983C2.26439 10.9992 2.18817 10.9996 2.11591 10.9998ZM8.98383 16C5.09292 16 3.08099 14.6007 2.04067 13.1537C1.99393 13.0887 2.04106 13 2.1215 12.9998C3.17984 12.9968 5.35223 12.9471 6.78499 12.1145C6.85908 12.0714 6.84278 11.9629 6.7614 11.9358C3.42156 10.8208 1.52308 6.09859 2.87101 3.1459C2.90192 3.0782 2.99357 3.06927 3.04007 3.12754C4.57985 5.05718 7.94651 6.9472 10.8756 6.99891C10.9392 7 10.9872 6.9427 10.9776 6.88033C10.8595 6.12053 10.4088 2 14.5231 2C15.5055 2 16.9673 2.47583 17.5057 2.9633C17.5306 2.98583 17.5643 2.99606 17.5974 2.9895L19.8604 2.5401C19.9426 2.52378 20.0077 2.60845 19.9703 2.68288L18.5666 5.47019C18.5569 5.48954 18.5538 5.51175 18.5576 5.53306C19.5406 11.02 15.0146 16 8.98383 16Z" fill="#777E91"/>
</svg>